<?xml version="1.0" standalone="no"?><!DOCTYPE svg PUBLIC "-//W3C//DTD SVG 1.1//EN" "http://www.w3.org/Graphics/SVG/1.1/DTD/svg11.dtd"><svg t="1576833163925" class="icon" viewBox="0 0 1029 1024" version="1.1" xmlns="http://www.w3.org/2000/svg" p-id="2577" xmlns:xlink="http://www.w3.org/1999/xlink" width="100.48828125" height="100"><defs><style type="text/css"></style></defs><path d="M599.04 624.64s-35.84-10.24-40.96-15.36c-20.48-10.24-30.72-35.84-30.72-56.32 0-25.6 20.48-46.08 35.84-61.44 35.84-40.96 51.2-97.28 51.2-158.72 0-128-92.16-230.4-204.8-230.4s-204.8 102.4-204.8 230.4c0 61.44 20.48 117.76 51.2 158.72 20.48 10.24 35.84 35.84 35.84 61.44 0 20.48-10.24 40.96-30.72 56.32h-5.12c-10.24 5.12-20.48 10.24-35.84 10.24-87.04 30.72-158.72 76.8-204.8 133.12-10.24 15.36-15.36 35.84-15.36 51.2 0 56.32 46.08 102.4 102.4 102.4h604.16c61.44 0 102.4-40.96 102.4-102.4 0-20.48-10.24-40.96-20.48-61.44-35.84-46.08-107.52-87.04-189.44-117.76z m409.6 102.4c-40.96-46.08-97.28-87.04-174.08-112.64 0 0-30.72-5.12-40.96-10.24-15.36-10.24-25.6-30.72-25.6-51.2s20.48-40.96 30.72-51.2c30.72-35.84 46.08-81.92 46.08-138.24 0-112.64-81.92-204.8-179.2-204.8-15.36 0-30.72 0-46.08 5.12 35.84 51.2 51.2 107.52 51.2 174.08 0 71.68-25.6 138.24-66.56 194.56l-5.12 5.12c-5.12 5.12-10.24 10.24-15.36 20.48 5.12 0 10.24 5.12 20.48 5.12l10.24 5.12c92.16 30.72 174.08 81.92 225.28 148.48 20.48 30.72 35.84 61.44 35.84 102.4 0 20.48-5.12 35.84-10.24 56.32h66.56c51.2 0 92.16-40.96 92.16-87.04 5.12-25.6-5.12-46.08-15.36-61.44z" fill="" p-id="2578"></path></svg>