<?xml version="1.0" standalone="no"?><!DOCTYPE svg PUBLIC "-//W3C//DTD SVG 1.1//EN" "http://www.w3.org/Graphics/SVG/1.1/DTD/svg11.dtd"><svg t="1576833300808" class="icon" viewBox="0 0 1024 1024" version="1.1" xmlns="http://www.w3.org/2000/svg" p-id="4815" xmlns:xlink="http://www.w3.org/1999/xlink" width="100" height="100"><defs><style type="text/css"></style></defs><path d="M356.680764 240.523855h264.937323a269.464324 269.464324 0 0 1 263.482216 212.984602l90.755584 423.597917a107.78573 107.78573 0 0 1-96.090978 130.043483 4535.892964 4535.892964 0 0 1-781.230968 0 107.78573 107.78573 0 0 1-96.090977-129.98959l90.755584-423.65181a269.464324 269.464324 0 0 1 263.482216-212.984602z m256.745608 168.792453a26.946432 26.946432 0 0 0-36.539363 0l-87.737584 75.988939-87.737584-75.988939a26.946432 26.946432 0 0 0-36.539362 0 21.718825 21.718825 0 0 0 0 33.413576l61.599545 52.168293H380.50141c-15.628931 0-26.084147 9.539037-26.084147 23.820646 0 14.335502 10.455216 28.671004 26.084147 28.671005h82.509976v104.929407h-82.456083c-15.682824 0-26.138039 9.59293-26.13804 23.874539 0 14.335502 10.455216 23.874539 26.084147 23.874539h82.509976v109.402516c0 14.281609 10.455216 23.874539 26.138039 23.874539 15.628931 0 26.084147-9.59293 26.084147-23.874539v-109.402516h82.509976c15.682824 0 26.138039-9.539037 26.138039-23.874539 0-14.281609-10.455216-23.874539-26.138039-23.874539h-82.456083v-104.929407h82.456083c15.682824 0 26.138039-9.539037 26.138039-23.87454s-10.455216-23.874539-26.138039-23.874539h-45.916721l61.599545-52.1144a27.162004 27.162004 0 0 0 0-38.210041zM615.85155 215.571459H362.4473a53.892865 53.892865 0 0 1-51.306007-37.293862l-34.599219-106.923444A53.892865 53.892865 0 0 1 338.087725 1.832357c50.335936 9.754609 100.725764 14.604966 151.0617 14.604967 50.335936 0 100.725764-4.850358 151.0617-14.551074a53.892865 53.892865 0 0 1 61.545652 69.467903l-34.599219 106.923444a53.892865 53.892865 0 0 1-51.306008 37.293862z" p-id="4816"></path></svg>