<?xml version="1.0" standalone="no"?><!DOCTYPE svg PUBLIC "-//W3C//DTD SVG 1.1//EN" "http://www.w3.org/Graphics/SVG/1.1/DTD/svg11.dtd"><svg t="1576833259165" class="icon" viewBox="0 0 1073 1024" version="1.1" xmlns="http://www.w3.org/2000/svg" p-id="4071" xmlns:xlink="http://www.w3.org/1999/xlink" width="104.78515625" height="100"><defs><style type="text/css"></style></defs><path d="M1031.639678 293.917228L545.634829 4.997318c-6.168998-3.425999-12.923996-5.089998-19.581993-4.992998-6.656998-0.098-13.412996 1.469-19.579994 4.992998L20.467994 293.917228C1.574 304.491225-5.279998 328.870217 5.195998 347.961211c10.573997 19.091994 34.658989 25.944992 53.553984 15.370995L513.619839 92.330291a24.123992 24.123992 0 0 1 24.867993 0l454.869858 271.002915c18.895994 10.573997 42.979987 3.719999 53.554983-15.369995 10.475997-19.091994 3.621999-43.372986-15.273995-54.044983z" p-id="4072"></path><path d="M905.634717 371.067204L556.109826 165.563268c-18.601994-10.965997-41.511987-10.965997-60.113981 0L146.473954 371.067204c-18.307994 10.769997-29.664991 30.54599-29.664991 51.987984v467.499854c0 33.28699 26.727992 60.211981 59.721982 60.211981H875.479726c32.99399 0 59.721981-26.924992 59.721982-60.211981v-467.499854c0-21.441993-11.258996-41.217987-29.566991-51.987984z m-522.032837 474.449852c0 8.322997-6.755998 15.077995-14.979995 15.077995H231.847928c-8.223997 0-14.979995-6.754998-14.979996-15.076995V707.470099c0-8.321997 6.755998-15.077995 14.979996-15.077995H368.719885c8.223997 0 14.979995 6.755998 14.979995 15.077995v138.046957z m0-220.579931c0 8.320997-6.755998 15.076995-14.979995 15.076995H231.847928c-8.223997 0-14.979995-6.755998-14.979996-15.077995V486.890168c0-8.321997 6.755998-15.076995 14.979996-15.076995H368.719885c8.223997 0 14.979995 6.754998 14.979995 15.076995v138.046957z m217.251932 220.579931c0 8.322997-6.754998 15.077995-14.979995 15.077995H449.00386c-8.223997 0-14.979995-6.754998-14.979996-15.076995V707.470099c0-8.321997 6.755998-15.077995 14.979996-15.077995h136.871957c8.223997 0 14.979995 6.755998 14.979995 15.077995v138.046957z m0-220.579931c0 8.320997-6.754998 15.076995-14.979995 15.076995H449.00386c-8.223997 0-14.979995-6.755998-14.979996-15.077995V486.890168c0-8.321997 6.755998-15.076995 14.979996-15.076995h136.871957c8.223997 0 14.979995 6.754998 14.979995 15.076995v138.046957z m213.629933 220.579931c0 8.322997-6.754998 15.077995-14.978995 15.077995H662.632793c-8.223997 0-14.979995-6.754998-14.979995-15.076995V707.470099c0-8.321997 6.755998-15.077995 14.979995-15.077995h136.871957c8.223997 0 14.979995 6.755998 14.979995 15.077995v138.046957z" p-id="4073"></path></svg>