<?xml version="1.0" standalone="no"?><!DOCTYPE svg PUBLIC "-//W3C//DTD SVG 1.1//EN" "http://www.w3.org/Graphics/SVG/1.1/DTD/svg11.dtd"><svg t="1576833340170" class="icon" viewBox="0 0 1024 1024" version="1.1" xmlns="http://www.w3.org/2000/svg" p-id="5579" xmlns:xlink="http://www.w3.org/1999/xlink" width="100" height="100"><defs><style type="text/css"></style></defs><path d="M900.813 730.931A139.06 139.06 0 0 1 803.84 862.67a167.731 167.731 0 0 1-85.709 3.635 139.366 139.366 0 0 1-105.83-135.373H396.902a138.957 138.957 0 0 1-98.304 131.738 169.216 169.216 0 0 1-88.166 2.457A138.598 138.598 0 0 1 108.39 730.931c-33.843 0.768-88.268 6.093-102.041-13.414a36.147 36.147 0 0 1 30.208-56.32V491.674a378.47 378.47 0 0 1 3.789-82.944 144.026 144.026 0 0 1 46.643-57.344l65.485-63.437a147.405 147.405 0 0 1 59.238-42.65 547.328 547.328 0 0 1 112.128-2.457 140.288 140.288 0 0 0 1.229-36.608v-76.8a48.538 48.538 0 0 1 21.453-24.423 375.86 375.86 0 0 1 66.56-2.457h151.142c100.813 0 201.626-0.564 302.387 0 63.335 0.41 92.723-6.861 105.83 28.057v540.365a71.68 71.68 0 0 1-6.297 45.107 76.8 76.8 0 0 1-65.331 14.848zM108.39 451.635H325.07V312.32h-93.235a99.43 99.43 0 0 0-28.98 25.6c-22.22 21.555-44.492 41.882-66.56 63.437a90.675 90.675 0 0 0-27.699 32.921 118.323 118.323 0 0 0-0.205 17.357z m133.53 209.92a96.307 96.307 0 0 0-25.19 8.55 75.06 75.06 0 0 0-33.997 42.701 69.222 69.222 0 0 0 41.574 81.92 83.917 83.917 0 0 0 36.506 6.093 74.138 74.138 0 0 0 59.238-43.93 71.117 71.117 0 0 0-39.065-90.265 100.454 100.454 0 0 0-39.066-5.222z m503.962 0a86.22 86.22 0 0 0-25.19 8.55 76.39 76.39 0 0 0-34.049 42.701 69.12 69.12 0 0 0 41.575 81.92 69.888 69.888 0 0 0 36.556 6.093 76.34 76.34 0 0 0 59.188-43.93 71.066 71.066 0 0 0-39.015-90.265 100.71 100.71 0 0 0-39.065-5.222z" p-id="5580"></path></svg>